<?xml version="1.0" encoding="UTF-8" standalone="no"?>
<svg
   width="660"
   height="505"
   viewBox="0 0 660 505"
   fill="none"
   version="1.1"
   id="svg96"
   sodipodi:docname="paxton-text-in-circle.svg"
   inkscape:version="1.3 (0e150ed, 2023-07-21)"
   inkscape:export-filename="paxton-text-in-circle.png"
   inkscape:export-xdpi="96"
   inkscape:export-ydpi="96"
   xml:space="preserve"
   xmlns:inkscape="http://www.inkscape.org/namespaces/inkscape"
   xmlns:sodipodi="http://sodipodi.sourceforge.net/DTD/sodipodi-0.dtd"
   xmlns="http://www.w3.org/2000/svg"
   xmlns:svg="http://www.w3.org/2000/svg"><sodipodi:namedview
     id="namedview96"
     pagecolor="#ffffff"
     bordercolor="#000000"
     borderopacity="0.25"
     inkscape:showpageshadow="2"
     inkscape:pageopacity="0.0"
     inkscape:pagecheckerboard="0"
     inkscape:deskcolor="#d1d1d1"
     inkscape:zoom="1.8812989"
     inkscape:cx="312.28424"
     inkscape:cy="190.55983"
     inkscape:window-width="3440"
     inkscape:window-height="1440"
     inkscape:window-x="1728"
     inkscape:window-y="0"
     inkscape:window-maximized="0"
     inkscape:current-layer="svg96"
     showguides="true"><sodipodi:guide
       position="286.50418,645.32858"
       orientation="1,0"
       id="guide1"
       inkscape:locked="false" /></sodipodi:namedview><mask
     id="path-1-outside-1_1_2"
     maskUnits="userSpaceOnUse"
     x="136"
     y="31"
     width="388"
     height="346"
     fill="black"><rect
       fill="white"
       x="136"
       y="31"
       width="388"
       height="346"
       id="rect2" /><path
       fill-rule="evenodd"
       clip-rule="evenodd"
       d="M416.136 206.744C416.526 201.046 416.56 195.405 416.256 189.845L425.86 185.633L427.108 184.703C427.115 184.632 427.115 184.569 427.117 184.503C427.118 184.49 427.119 184.477 427.119 184.464C427.12 184.454 427.121 184.445 427.122 184.435C428.784 166.611 429.258 147.97 429.13 130.826C431.803 130.044 435.07 128.998 438.527 127.68C438.437 127.67 438.347 127.657 438.257 127.64C443.105 125.903 449.649 123.545 454.355 120.963C458.33 121.578 461.412 120.698 461.907 120.541L461.872 120.369C468.654 119.04 478.608 114.415 489.95 102.351L490.392 101.86C491.759 100.631 491.902 98.1667 491.972 96.1213C492.626 96.088 493.304 96.04 494.007 95.9653C508.19 94.4507 514.708 85.2453 515.919 79.832C515.918 79.824 515.921 79.8124 515.925 79.8013C515.927 79.7922 515.93 79.7834 515.93 79.7773C516.122 79.1 513.695 75.952 513.194 75.5627C511.792 74.4987 503.118 73.5053 498.463 73.0587C499.816 66.8045 506.345 63.355 509.419 61.7308C510.013 61.417 510.479 61.1713 510.752 60.9867C511.088 60.756 511.352 60.4227 511.559 60.0253C512.53 58.0933 512.079 54.6986 512.079 54.6986C511.543 54.5807 510.737 54.3672 509.73 54.1005L509.73 54.1004C505.634 53.0155 498.215 51.0504 492.151 51.0547C490.002 51.0693 488.026 51.316 486.427 51.9306C475.235 56.237 470.145 70.3202 469.382 72.9607C468.992 72.8515 469.396 72.732 469.396 72.732C467.331 73.0627 466.994 73.444 466.994 73.444C462.703 77.2279 458.572 80.7869 454.829 84.012C444.773 92.6751 437.514 98.9293 437.466 100.663L437.452 100.664C437.439 100.677 437.44 100.704 437.455 100.717C437.46 100.916 437.468 101.121 437.478 101.33C434.903 103.219 431.442 105.489 429.171 106.607L429.188 106.645C429.084 106.921 428.983 107.242 428.886 107.602C428.793 107.651 428.701 107.7 428.608 107.748C427.66 82.2204 425.8 63.9893 425.8 63.9893L423.5 62.8627C402.239 51.5427 353.563 41.816 318.52 40L317.436 40.736L293.467 57.08C291.152 55.9147 289.088 55.2293 288.104 55.0387C276.788 52.9679 266.273 55.7512 258.856 62.8779C197.507 72.5663 148.743 123.552 144.323 188.147C141.452 230.109 157.903 268.931 186.084 295.906L187 297L204.549 333.104L231.625 352.228L228.419 357.492L250.944 356.203C247.655 361.277 244.304 366.315 240.879 371.309C244.727 366.303 248.501 361.24 252.213 356.13L254.555 355.996C259.008 349.621 262.295 343.792 264.676 338.498C265.901 336.719 267.121 334.936 268.335 333.15C269.198 333.225 270.063 333.292 270.931 333.352C280.355 333.996 289.621 333.667 298.629 332.448C295.109 338.843 291.492 345.2 287.874 351.556C286.633 353.735 285.393 355.915 284.156 358.096C290.164 349.489 296.06 340.779 301.821 331.978C306.769 331.188 311.634 330.13 316.4 328.818C314.738 331.737 313.07 334.653 311.398 337.567C313.395 334.569 315.382 331.562 317.36 328.55C371.128 313.319 412.102 265.7 416.136 206.744ZM469.669 73.2373L469.737 73.153L471.231 72.572C471.223 72.6014 470.237 73.0063 469.669 73.2373Z"
       id="path2" /></mask><defs
     id="defs96"><linearGradient
       id="paint0_linear_1_2"
       x1="339.663"
       y1="72.388"
       x2="374.374"
       y2="76.5959"
       gradientUnits="userSpaceOnUse"><stop
         stop-color="#E88A0F"
         id="stop93" /><stop
         offset="1"
         stop-color="#FCD006"
         id="stop94" /></linearGradient><linearGradient
       id="paint1_linear_1_2"
       x1="384.916"
       y1="83.736"
       x2="419.704"
       y2="86.7977"
       gradientUnits="userSpaceOnUse"><stop
         stop-color="#E88A0F"
         id="stop95" /><stop
         offset="1"
         stop-color="#FCD006"
         id="stop96" /></linearGradient><clipPath
       id="clip0_1_2"><rect
         width="371.94"
         height="293.675"
         fill="white"
         transform="translate(144 40)"
         id="rect96" /></clipPath><clipPath
       id="clip0_1_2-4"><rect
         width="371.94"
         height="293.67499"
         fill="#ffffff"
         transform="translate(144,40)"
         id="rect96-0"
         x="0"
         y="0" /></clipPath><mask
       id="mask0_1_2-4"
       maskUnits="userSpaceOnUse"
       x="144"
       y="61"
       width="273"
       height="273"><path
         d="M 416.136,206.744 C 411,281.803 345.99,338.487 270.931,333.352 195.872,328.216 139.188,263.205 144.323,188.147 149.459,113.088 214.47,56.4039 289.528,61.5385 c 75.059,5.136 131.743,70.1465 126.608,145.2055 z"
         fill="#ffffff"
         id="path6-3" /></mask><mask
       id="mask1_1_2-1"
       maskUnits="userSpaceOnUse"
       x="341"
       y="50"
       width="34"
       height="49"><path
         d="m 361.656,51.9053 c -7.436,-3.0973 -15.392,0.0027 -20.366,7.068 4.765,-4.936 11.326,-6.828 17.525,-4.2546 9.571,3.9746 14.631,17.0346 11.293,29.18 -1.932,7.0213 -6.244,12.1946 -11.386,14.5413 6.546,-1.6387 12.285,-7.572 14.637,-16.1467 3.465,-12.6493 -1.779,-26.2506 -11.703,-30.388 z"
         fill="#ffffff"
         id="path74-7" /></mask><linearGradient
       id="paint0_linear_1_2-9"
       x1="339.66299"
       y1="72.388"
       x2="374.37399"
       y2="76.595901"
       gradientUnits="userSpaceOnUse"><stop
         stop-color="#E88A0F"
         id="stop93-4" /><stop
         offset="1"
         stop-color="#FCD006"
         id="stop94-7" /></linearGradient><mask
       id="mask2_1_2-0"
       maskUnits="userSpaceOnUse"
       x="386"
       y="61"
       width="34"
       height="49"><path
         d="m 406.21,62.556 c -7.524,-2.8453 -15.371,0.5173 -20.111,7.7387 4.6,-5.088 11.092,-7.1974 17.364,-4.8347 9.685,3.648 15.16,16.5213 12.217,28.7627 -1.704,7.0763 -5.842,12.3883 -10.902,14.9023 6.484,-1.856 12.025,-7.974 14.097,-16.6143 3.053,-12.7494 -2.621,-26.156 -12.665,-29.9547 z"
         fill="#ffffff"
         id="path76-1" /></mask><linearGradient
       id="paint1_linear_1_2-1"
       x1="384.91599"
       y1="83.736"
       x2="419.70401"
       y2="86.797699"
       gradientUnits="userSpaceOnUse"><stop
         stop-color="#E88A0F"
         id="stop95-5" /><stop
         offset="1"
         stop-color="#FCD006"
         id="stop96-2" /></linearGradient><clipPath
       id="clip0_1_2-8"><rect
         width="371.94"
         height="293.67499"
         fill="#ffffff"
         transform="translate(144,40)"
         id="rect96-2"
         x="0"
         y="0" /></clipPath><mask
       id="mask0_1_2-48"
       maskUnits="userSpaceOnUse"
       x="144"
       y="61"
       width="273"
       height="273"><path
         d="M 416.136,206.744 C 411,281.803 345.99,338.487 270.931,333.352 195.872,328.216 139.188,263.205 144.323,188.147 149.459,113.088 214.47,56.4039 289.528,61.5385 c 75.059,5.136 131.743,70.1465 126.608,145.2055 z"
         fill="#ffffff"
         id="path6-35" /></mask><mask
       id="mask1_1_2-0"
       maskUnits="userSpaceOnUse"
       x="341"
       y="50"
       width="34"
       height="49"><path
         d="m 361.656,51.9053 c -7.436,-3.0973 -15.392,0.0027 -20.366,7.068 4.765,-4.936 11.326,-6.828 17.525,-4.2546 9.571,3.9746 14.631,17.0346 11.293,29.18 -1.932,7.0213 -6.244,12.1946 -11.386,14.5413 6.546,-1.6387 12.285,-7.572 14.637,-16.1467 3.465,-12.6493 -1.779,-26.2506 -11.703,-30.388 z"
         fill="#ffffff"
         id="path74-0" /></mask><linearGradient
       id="paint0_linear_1_2-6"
       x1="339.66299"
       y1="72.388"
       x2="374.37399"
       y2="76.595901"
       gradientUnits="userSpaceOnUse"><stop
         stop-color="#E88A0F"
         id="stop93-7" /><stop
         offset="1"
         stop-color="#FCD006"
         id="stop94-0" /></linearGradient><mask
       id="mask2_1_2-7"
       maskUnits="userSpaceOnUse"
       x="386"
       y="61"
       width="34"
       height="49"><path
         d="m 406.21,62.556 c -7.524,-2.8453 -15.371,0.5173 -20.111,7.7387 4.6,-5.088 11.092,-7.1974 17.364,-4.8347 9.685,3.648 15.16,16.5213 12.217,28.7627 -1.704,7.0763 -5.842,12.3883 -10.902,14.9023 6.484,-1.856 12.025,-7.974 14.097,-16.6143 3.053,-12.7494 -2.621,-26.156 -12.665,-29.9547 z"
         fill="#ffffff"
         id="path76-3" /></mask><linearGradient
       id="paint1_linear_1_2-3"
       x1="384.91599"
       y1="83.736"
       x2="419.70401"
       y2="86.797699"
       gradientUnits="userSpaceOnUse"><stop
         stop-color="#E88A0F"
         id="stop95-2" /><stop
         offset="1"
         stop-color="#FCD006"
         id="stop96-1" /></linearGradient><mask
       maskUnits="userSpaceOnUse"
       id="mask175"><g
         id="g176"><path
           d="m 406.21,62.556 c -7.524,-2.8453 -15.371,0.5173 -20.111,7.7387 4.6,-5.088 11.092,-7.1974 17.364,-4.8347 9.685,3.648 15.16,16.5213 12.217,28.7627 -1.704,7.0763 -5.842,12.3883 -10.902,14.9023 6.484,-1.856 12.025,-7.974 14.097,-16.6143 3.053,-12.7494 -2.621,-26.156 -12.665,-29.9547 z"
           fill="#ffffff"
           id="path176" /></g></mask><mask
       maskUnits="userSpaceOnUse"
       id="mask177"><g
         id="g178"><path
           d="m 361.656,51.9053 c -7.436,-3.0973 -15.392,0.0027 -20.366,7.068 4.765,-4.936 11.326,-6.828 17.525,-4.2546 9.571,3.9746 14.631,17.0346 11.293,29.18 -1.932,7.0213 -6.244,12.1946 -11.386,14.5413 6.546,-1.6387 12.285,-7.572 14.637,-16.1467 3.465,-12.6493 -1.779,-26.2506 -11.703,-30.388 z"
           fill="#ffffff"
           id="path178" /></g></mask><mask
       maskUnits="userSpaceOnUse"
       id="mask340"><g
         id="g341"
         transform="translate(-0.1699289)"><path
           d="m 416.30593,206.744 c -5.136,75.059 -70.146,131.743 -145.205,126.608 -75.059,-5.136 -131.743,-70.147 -126.608,-145.205 5.136,-75.059 70.147,-131.7431 145.205,-126.6085 75.059,5.136 131.743,70.1465 126.608,145.2055 z"
           fill="#ffffff"
           id="path341" /></g></mask><mask
       maskUnits="userSpaceOnUse"
       id="mask341"><g
         id="g342"
         transform="translate(-0.1699289)"><path
           d="m 416.30593,206.744 c -5.136,75.059 -70.146,131.743 -145.205,126.608 -75.059,-5.136 -131.743,-70.147 -126.608,-145.205 5.136,-75.059 70.147,-131.7431 145.205,-126.6085 75.059,5.136 131.743,70.1465 126.608,145.2055 z"
           fill="#ffffff"
           id="path342" /></g></mask><mask
       maskUnits="userSpaceOnUse"
       id="mask342"><g
         id="g343"
         transform="translate(-0.1699289)"><path
           d="m 416.30593,206.744 c -5.136,75.059 -70.146,131.743 -145.205,126.608 -75.059,-5.136 -131.743,-70.147 -126.608,-145.205 5.136,-75.059 70.147,-131.7431 145.205,-126.6085 75.059,5.136 131.743,70.1465 126.608,145.2055 z"
           fill="#ffffff"
           id="path343" /></g></mask><mask
       maskUnits="userSpaceOnUse"
       id="mask343"><g
         id="g344"
         transform="translate(-0.1699289)"><path
           d="m 416.30593,206.744 c -5.136,75.059 -70.146,131.743 -145.205,126.608 -75.059,-5.136 -131.743,-70.147 -126.608,-145.205 5.136,-75.059 70.147,-131.7431 145.205,-126.6085 75.059,5.136 131.743,70.1465 126.608,145.2055 z"
           fill="#ffffff"
           id="path344" /></g></mask><mask
       maskUnits="userSpaceOnUse"
       id="mask344"><g
         id="g345"
         transform="translate(-0.1699289)"><path
           d="m 416.30593,206.744 c -5.136,75.059 -70.146,131.743 -145.205,126.608 -75.059,-5.136 -131.743,-70.147 -126.608,-145.205 5.136,-75.059 70.147,-131.7431 145.205,-126.6085 75.059,5.136 131.743,70.1465 126.608,145.2055 z"
           fill="#ffffff"
           id="path345" /></g></mask></defs><path
     id="path594"
     style="fill:#ffffff;fill-opacity:1"
     d="m 333.72855,74.95164 c -1.32752,0.129322 -2.215,1.255564 -3.32862,1.868291 -7.0057,4.77307 -14.01139,9.546139 -21.01708,14.319209 -8.82263,-2.738674 -18.48102,-1.84848 -27.05453,1.353397 -3.73421,1.443256 -7.23826,3.492097 -10.30289,6.070431 -15.56837,2.766652 -30.70508,8.029812 -44.54163,15.698952 -19.80053,10.90736 -36.96398,26.54633 -49.66603,45.24603 -7.62335,11.13029 -13.64073,23.36165 -17.83252,36.18348 -3.35498,10.36868 -5.56063,21.11166 -6.58566,31.96042 -0.47254,6.98018 -0.26851,13.98213 -0.24299,20.97217 0.11689,6.74754 0.98386,13.4626 2.34081,20.06784 4.42776,22.47274 14.31283,43.83881 28.56055,61.77248 13.85361,17.50633 31.78583,31.79498 52.05972,41.17243 17.25936,8.011 36.10693,12.63589 55.12707,13.36599 8.54577,0.22075 17.12244,-0.0788 25.60118,-1.21015 22.90943,-3.10055 45.02385,-11.84338 63.86969,-25.23182 20.05739,-14.1613 36.34481,-33.57317 46.88403,-55.74392 9.54078,-19.97882 14.33756,-42.19722 13.91211,-64.33203 2.69019,-1.19986 5.5376,-2.26188 7.79492,-4.20703 2.37009,-2.27988 2.98833,-5.69779 3.14787,-8.84585 1.28983,-15.08629 1.62993,-30.23124 1.95369,-45.36314 5.32849,-1.8967 10.57865,-4.00936 15.80219,-6.176 1.34585,-0.50869 2.62438,-1.36987 4.11411,-1.28946 2.47044,-0.0147 4.91358,-0.42693 7.28885,-1.09149 6.0488,-1.67461 11.86416,-4.26686 17.01754,-7.86702 5.33376,-3.67499 10.11463,-8.09811 14.58623,-12.76813 1.09704,-1.20938 2.07129,-2.55704 2.68913,-4.07742 8.10487,-1.6789 15.72843,-6.13574 20.68164,-12.83399 1.99834,-2.75993 3.62591,-5.88184 4.27448,-9.24707 0.50797,-3.43015 -1.00968,-6.78526 -3.05088,-9.45716 -1.3762,-1.9133 -3.23258,-3.53102 -5.47165,-4.33678 2.61563,-1.87181 4.33861,-4.85749 4.73242,-8.04297 0.35733,-2.69276 0.0861,-5.41674 0.17811,-8.123428 0.004,-0.976436 0.008,-1.952872 0.0113,-2.929309 -9.19214,-2.554454 -18.47751,-5.501466 -28.11836,-5.449117 -3.8035,-0.04524 -7.75905,0.381004 -11.10992,2.321582 -6.62265,3.271522 -11.58366,9.117961 -15.24292,15.409222 -1.0298,1.79811 -1.94515,3.66128 -2.75146,5.56988 -2.9297,1.87752 -5.36589,4.39546 -8.05462,6.58392 -6.44746,5.56824 -12.95184,11.07877 -19.12312,16.95709 -0.51435,-8.55009 -1.03036,-17.10576 -1.88797,-25.62814 -0.55315,-3.59054 -2.8209,-7.01041 -6.24233,-8.426563 -10.06742,-5.193882 -20.93097,-8.604032 -31.81674,-11.611398 -15.34693,-4.156874 -30.98953,-7.16829 -46.7284,-9.386246 -10.41651,-1.454126 -20.89479,-2.433523 -31.38191,-3.190719 -0.35413,-0.05319 -0.72043,-0.07615 -1.07546,-0.02646 z" /><g
     clip-path="url(#clip0_1_2)"
     id="g91"
     transform="translate(17.013251,43.000418)"
     style="display:inline;stroke:none;stroke-width:5.104;stroke-dasharray:none;stroke-opacity:1;paint-order:fill markers stroke"
     inkscape:label="g91"><mask
       id="mask0_1_2"
       maskUnits="userSpaceOnUse"
       x="144"
       y="61"
       width="273"
       height="273"><path
         d="M 416.136,206.744 C 411,281.803 345.99,338.487 270.931,333.352 195.872,328.216 139.188,263.205 144.323,188.147 149.459,113.088 214.47,56.4039 289.528,61.5385 c 75.059,5.136 131.743,70.1465 126.608,145.2055 z"
         fill="#ffffff"
         id="path6" /></mask><g
       mask="url(#mask0_1_2)"
       id="g11"
       transform="translate(0.1699289)"
       style="stroke:none;stroke-width:5.104;stroke-dasharray:none;stroke-opacity:1;paint-order:fill markers stroke"><path
         d="M 416.136,206.744 C 411,281.803 345.99,338.487 270.931,333.352 195.872,328.216 139.188,263.205 144.323,188.147 149.459,113.088 214.47,56.4039 289.528,61.5385 c 75.059,5.136 131.743,70.1465 126.608,145.2055 z"
         fill="#a6c9e9"
         id="path7"
         style="stroke:none;stroke-width:5.104;stroke-dasharray:none;stroke-opacity:1;paint-order:fill markers stroke" /><path
         d="m 362.535,258.955 c -17.297,25.992 -33.816,52.612 -51.137,78.612 7.785,-13.562 15.456,-27.182 23.048,-40.847 7.597,-13.661 15.165,-27.359 23.034,-40.916 z"
         fill="#ffffff"
         id="path8"
         style="stroke:none;stroke-width:5.104;stroke-dasharray:none;stroke-opacity:1;paint-order:fill markers stroke" /><path
         d="m 323.042,298.076 c -12.204,20.44 -25.258,40.497 -38.886,60.02 5.872,-10.357 11.834,-20.68 17.462,-31.135 5.597,-10.465 10.866,-21.132 16.214,-31.772 z"
         fill="#ffffff"
         id="path9"
         style="stroke:none;stroke-width:5.104;stroke-dasharray:none;stroke-opacity:1;paint-order:fill markers stroke" /><path
         d="m 302.702,280.276 c -19.6,30.964 -39.474,61.953 -61.823,91.033 20.745,-30.256 38.808,-62.101 56.712,-94.092 z"
         fill="#ffffff"
         id="path10"
         style="stroke:none;stroke-width:5.104;stroke-dasharray:none;stroke-opacity:1;paint-order:fill markers stroke" /><path
         d="m 321.738,213.457 -52.417,-22.629 -20.771,23.08 c -34.718,1.191 -41.12,33.119 -41.12,33.119 -33.726,-2.707 -53.798,40.089 -53.798,40.089 l 14.346,21.273 36.571,24.715 27.076,19.124 -3.206,5.264 26.136,-1.496 c 22.227,-31.828 15.412,-50.037 11.826,-56.02 z"
         fill="#ffffff"
         id="path11"
         style="stroke:none;stroke-width:5.104;stroke-dasharray:none;stroke-opacity:1;paint-order:fill markers stroke" /></g><path
       d="m 440.563,109.717 c 4.469,7.334 10.289,9.83 15.239,10.408 -4.987,3.066 -12.996,5.883 -18.403,7.823 -2.907,-0.291 -5.475,-0.856 -7.897,-6.109 -2.199,-4.72 -1.378,-12.368 -0.314,-15.194 l -0.017,-0.038 c 3.231,-1.59 8.869,-5.512 10.939,-7.351 l -1.764,1.911 c 0.066,2.444 0.445,5.63 2.217,8.55 z"
       fill="#aab0c2"
       id="path12"
       style="stroke:none;stroke-width:5.104;stroke-dasharray:none;stroke-opacity:1;paint-order:fill markers stroke" /><path
       d="m 498.463,73.0587 c 4.655,0.4466 13.329,1.44 14.731,2.504 0.501,0.3893 2.928,3.5373 2.736,4.2146 0,0.0134 -0.012,0.04 -0.011,0.0547 L 499.83,77.944 c -0.011,0.0533 -0.035,0.108 -0.046,0.1493 l -3.88,-4.9453 c 0.062,-0.1093 0.136,-0.2067 0.226,-0.292 0.509,0.0413 1.328,0.1067 2.333,0.2027 z"
       fill="#aab0c2"
       id="path13"
       style="stroke:none;stroke-width:5.104;stroke-dasharray:none;stroke-opacity:1;paint-order:fill markers stroke" /><path
       d="m 499.784,78.0933 c 0.011,-0.0413 0.035,-0.096 0.046,-0.1493 l 16.089,1.888 c -1.211,5.4133 -7.729,14.6187 -21.912,16.1333 -0.703,0.0747 -1.381,0.1227 -2.035,0.156 -1.292,0.0507 -2.494,0.0174 -3.608,-0.0733 -8.154,-0.764 -11.541,-5.2 -11.541,-5.2 -0.283,-0.292 -0.552,-0.6 -0.807,-0.8933 l 0.092,-0.0454 c 0,0 5.936,6.564 16.643,-2.4786 3.957,-3.3494 5.763,-4.868 7.033,-9.3374 z"
       fill="#080604"
       id="path14"
       style="stroke:none;stroke-width:5.104;stroke-dasharray:none;stroke-opacity:1;paint-order:fill markers stroke" /><path
       d="m 512.079,54.6986 c 0,0 0.451,3.3947 -0.52,5.3267 -1.765,-0.3253 -9.339,-1.72 -18.843,-3.2853 -0.224,0.0386 -0.449,0.0893 -0.673,0.1413 l 0.108,-5.8266 c 7.556,-0.0054 17.215,3.0466 19.928,3.6439 z"
       fill="#aab0c2"
       id="path15"
       style="stroke:none;stroke-width:5.104;stroke-dasharray:none;stroke-opacity:1;paint-order:fill markers stroke" /><path
       d="m 495.904,73.148 c -0.95,1.5427 -0.649,5.412 -8.182,9.8493 -7.002,4.1307 -9.423,-1.8226 -9.947,-3.4773 l -0.092,0.0307 c 0,0 -2.667,-4.9787 0.627,-11.1654 2.049,-3.8546 6.026,-9.728 13.733,-11.504 0.224,-0.052 0.449,-0.1026 0.673,-0.1413 9.504,1.5653 17.078,2.96 18.843,3.2853 -0.207,0.3974 -0.471,0.7307 -0.807,0.9614 -1.69,1.14 -10.674,4.6093 -12.289,12.072 -1.005,-0.096 -1.824,-0.1614 -2.333,-0.2027 -0.09,0.0853 -0.164,0.1827 -0.226,0.292 z"
       fill="#080604"
       id="path16"
       style="stroke:none;stroke-width:5.104;stroke-dasharray:none;stroke-opacity:1;paint-order:fill markers stroke" /><path
       d="m 461.872,120.369 0.035,0.172 c -0.551,0.175 -4.303,1.244 -8.923,0.155 -4.39,-1.021 -9.558,-3.979 -13.541,-11.495 -1.579,-2.99 -1.923,-6.112 -1.988,-8.484 -0.015,-0.013 -0.016,-0.04 -0.003,-0.053 l 0.014,-0.001 c 0.066,-2.379 13.712,-13.271 29.528,-27.219 0,0 0.337,-0.3813 2.402,-0.712 0,0 -0.626,0.1853 0.434,0.3053 l -0.524,0.6534 c -0.012,0.0413 0.38,-0.1347 0.38,-0.1347 0,0 1.577,0.2747 1.592,2.4493 -6.132,1.7507 -5.891,11.2254 -2.355,16.7747 4.392,6.9093 10.136,8.569 14.607,8.799 1.258,0.069 4.701,-0.491 4.778,-5.0603 l 0.056,-0.4707 c 1.114,0.0907 2.316,0.124 3.608,0.0733 -0.07,2.0454 -0.213,4.5097 -1.58,5.7387 l -0.442,0.491 c -11.342,12.064 -21.296,16.689 -28.078,18.018 z"
       fill="#778292"
       id="path17"
       style="stroke:none;stroke-width:5.104;stroke-dasharray:none;stroke-opacity:1;paint-order:fill markers stroke" /><path
       d="m 488.364,96.048 -0.056,0.4707 c -0.077,4.5693 -3.52,5.1293 -4.778,5.0603 -4.471,-0.23 -10.215,-1.8897 -14.607,-8.799 -3.536,-5.5493 -4.137,-14.8373 1.996,-16.5867 0.025,3.4294 0.871,8.8067 5.097,13.7614 0.255,0.2933 0.524,0.6013 0.807,0.8933 0,0 3.387,4.436 11.541,5.2 z"
       fill="#080604"
       id="path18"
       style="stroke:none;stroke-width:5.104;stroke-dasharray:none;stroke-opacity:1;paint-order:fill markers stroke" /><path
       d="m 438.527,127.68 c -6.899,2.629 -13.043,4.18 -15.207,4.701 -0.244,-7.802 -0.593,-15.033 -1.018,-21.63 l 0.041,-0.006 c 0,0 3.229,-1.381 6.797,-3.277 l 0.015,0.037 c -0.941,2.71 -0.448,7.231 1.533,11.77 2.184,5.049 5.239,8.117 7.839,8.405 z"
       fill="#aab0c2"
       id="path19"
       style="stroke:none;stroke-width:5.104;stroke-dasharray:none;stroke-opacity:1;paint-order:fill markers stroke" /><path
       d="m 471.231,72.572 -1.944,0.756 c 0.212,-1.1053 5.209,-16.8067 17.14,-21.3974 1.599,-0.6146 3.575,-0.8613 5.724,-0.8759 l -0.108,5.8266 c -7.707,1.776 -11.684,7.6494 -13.733,11.504 -3.294,6.1867 -0.627,11.1654 -0.627,11.1654 l 0.092,-0.0307 c 0.524,1.6547 2.945,7.608 9.947,3.4773 7.533,-4.4373 7.232,-8.3066 8.182,-9.8493 l 3.88,4.9453 c -1.27,4.4694 -3.076,5.988 -7.033,9.3374 -10.707,9.0426 -16.643,2.4786 -16.643,2.4786 l -0.092,0.0454 c -4.226,-4.9547 -7.014,-9.564 -7.04,-12.9934 -0.016,-2.1746 0.302,-3.5653 0.302,-3.5653 0,0 1.942,-0.7827 1.953,-0.824 z"
       fill="#778292"
       id="path20"
       style="stroke:none;stroke-width:5.104;stroke-dasharray:none;stroke-opacity:1;paint-order:fill markers stroke" /><path
       d="m 444.294,125.224 c -6.183,3.264 -11.931,-8.036 -12.38,-12.82 -0.315,-2.193 -0.36,-4.62 0.68,-6.767 -0.264,2.244 0.208,4.316 0.756,6.33 1.32,4.134 5.392,14.436 10.944,13.257 z"
       fill="#778292"
       id="path21"
       style="stroke:none;stroke-width:5.104;stroke-dasharray:none;stroke-opacity:1;paint-order:fill markers stroke" /><path
       d="m 451.276,105.776 c 0.832,2.388 0.302,4.743 -1.184,5.26 -1.486,0.517 -3.365,-0.999 -4.196,-3.387 -0.832,-2.388 -0.301,-4.744 1.184,-5.26 1.487,-0.517 3.366,0.999 4.196,3.387 z"
       fill="#566576"
       id="path22"
       style="stroke:none;stroke-width:5.104;stroke-dasharray:none;stroke-opacity:1;paint-order:fill markers stroke" /><path
       d="m 427.122,184.435 c -17.506,-1.924 -88.303,-8.603 -88.303,-8.603 0,0 -13.057,-1.332 -18.268,-1.417 l -1.433,0.698 -0.134,-0.273 c 2.423,-69.729 -1.52,-134.0653 -1.52,-134.0653 L 317.436,40.736 318.52,40 c 35.043,1.816 83.719,11.5427 104.98,22.8627 l 2.3,1.1266 c 0,0 6.559,64.2777 1.322,120.4457 z"
       fill="#fab10b"
       id="path23"
       style="stroke:none;stroke-width:5.104;stroke-dasharray:none;stroke-opacity:1;paint-order:fill markers stroke" /><path
       d="m 338.819,175.832 -6.66,2.697 c -4.105,-0.14 -11.843,-0.298 -14.969,-0.341 l 1.928,-3.075 1.433,-0.698 c 5.211,0.085 18.268,1.417 18.268,1.417 z"
       fill="#c59d1a"
       id="path24"
       style="stroke:none;stroke-width:5.104;stroke-dasharray:none;stroke-opacity:1;paint-order:fill markers stroke" /><path
       d="m 254.002,83.2147 39.465,-26.1347 23.969,-16.344 0.028,0.0387 c 0,0 3.943,64.3363 1.52,134.0653 l 0.134,0.273 c 0,0 0.588,-0.18 -0.303,1.507 l -69.566,34.328 c 0.053,-3.637 4.855,-125.7093 4.753,-127.7333 z"
       fill="#fcd006"
       id="path25"
       style="stroke:none;stroke-width:5.104;stroke-dasharray:none;stroke-opacity:1;paint-order:fill markers stroke" /><path
       d="m 377.252,178.465 -56.985,-3.788 c 0.012,-0.024 0.033,-0.053 0.045,-0.076 l -0.137,0.071 -0.545,-0.036 c -0.002,0.087 0.038,0.176 0.098,0.265 l -69.495,35.482 c 4.964,0.218 16.242,1.313 26.315,3.049 12.307,2.12 55.976,6.759 66.291,8.19 l -0.855,0.875 1.586,-0.78 c 0.026,0.003 0.061,0.008 0.088,0.011 l -0.078,-0.016 82.28,-36.079 1.248,-0.93 c 0.01,-0.095 0.006,-0.175 0.014,-0.268 -17.506,-1.924 -31.095,-4.843 -49.87,-5.97 z"
       fill="#95461d"
       id="path26"
       style="stroke:none;stroke-width:5.104;stroke-dasharray:none;stroke-opacity:1;paint-order:fill markers stroke" /><path
       d="m 293.467,57.08 -36.401,24.804 c 0.101,2.024 -0.361,5.572 -0.285,7.624 l 0.085,0.0907 c -3.721,3.2573 -5.496,9.648 -5.18,16.9883 -1.673,0.71 -3.423,1.493 -5.249,2.345 -0.743,0.359 -1.486,0.716 -2.255,1.088 l 5.411,-30.7093 c 4.891,-18.776 20.711,-27.5294 38.511,-24.272 0.984,0.1906 3.048,0.876 5.363,2.0413 z"
       fill="#566576"
       id="path27"
       style="stroke:none;stroke-width:5.104;stroke-dasharray:none;stroke-opacity:1;paint-order:fill markers stroke" /><path
       d="m 280.068,228.222 c 0.404,1.407 0.591,2.719 0.586,3.935 -1.432,-4.053 -12.42,-9.108 -26.338,-11.893 -15.455,-3.095 -28.667,-2.204 -29.497,1.991 l -0.189,-0.044 c 0.238,-1.107 0.678,-2.184 1.294,-3.203 2.862,-3.348 5.288,-6.34 7.319,-8.965 4.006,-1.056 10.909,-1.016 18.759,0.298 0.942,0.152 1.899,0.332 2.87,0.523 10.843,2.179 20.501,6.272 23.208,9.673 0.592,2.495 1.258,5.104 1.988,7.685 z"
       fill="#080604"
       id="path28"
       style="stroke:none;stroke-width:5.104;stroke-dasharray:none;stroke-opacity:1;paint-order:fill markers stroke" /><path
       d="m 280.654,232.157 c 0.009,0.734 -0.062,1.444 -0.215,2.107 -2.295,3.492 -14.762,4.065 -29.164,1.185 -15.455,-3.094 -27.3,-9.001 -26.456,-13.194 0.83,-4.195 14.042,-5.086 29.497,-1.991 13.918,2.785 24.906,7.84 26.338,11.893 z"
       fill="#ffffff"
       id="path29"
       style="stroke:none;stroke-width:5.104;stroke-dasharray:none;stroke-opacity:1;paint-order:fill markers stroke" /><path
       d="m 276.548,213.432 c 0.443,2.181 0.951,4.585 1.532,7.105 -2.707,-3.401 -12.365,-7.494 -23.208,-9.673 -0.971,-0.191 -1.928,-0.371 -2.87,-0.523 l 0.062,-0.364 c 0.066,-0.002 0.147,0.007 0.227,0.015 4.964,0.219 14.184,1.704 24.257,3.44 z"
       fill="#080604"
       id="path30"
       style="stroke:none;stroke-width:5.104;stroke-dasharray:none;stroke-opacity:1;paint-order:fill markers stroke" /><path
       d="m 255.915,130.177 0.136,0.314 c -0.734,19.126 -1.586,39.889 -2.176,55.765 -10.483,-0.58 -19.749,1.513 -23.707,2.995 -0.121,-1.103 0.017,-1.803 0.017,-1.803 l 7.651,-39.555 c 4.719,-4.909 7.862,-9.313 9.266,-10.852 1.164,-1.286 1.888,-2.552 2.189,-3.994 l 0.121,0.02 c 2.297,-1.063 4.464,-2.027 6.503,-2.89 z"
       fill="#566576"
       id="path31"
       style="stroke:none;stroke-width:5.104;stroke-dasharray:none;stroke-opacity:1;paint-order:fill markers stroke" /><path
       d="m 253.275,195.579 c -4.847,-0.291 -8.842,0.177 -10.937,1.257 l 0.074,0.129 c 0,0 -0.454,0.798 -1.457,2.37 l -0.082,-0.05 c -8.593,-2.825 -10.389,-7.488 -10.705,-10.034 3.958,-1.482 13.224,-3.575 23.707,-2.995 -0.105,3.223 -0.22,6.26 -0.307,9.028 l -0.025,0.308 c -0.094,-0.009 -0.187,-0.004 -0.268,-0.013 z"
       fill="#aab0c2"
       id="path32"
       style="stroke:none;stroke-width:5.104;stroke-dasharray:none;stroke-opacity:1;paint-order:fill markers stroke" /><path
       d="m 253.275,195.579 c -0.046,2.272 -0.226,4.524 -0.402,6.588 -7.497,-0.931 -13.433,-0.312 -14.709,1.661 l -0.18,-0.125 c 1.284,-1.814 2.265,-3.278 2.971,-4.368 1.003,-1.572 1.457,-2.37 1.457,-2.37 l -0.074,-0.129 c 2.095,-1.08 6.09,-1.548 10.937,-1.257 z"
       fill="#080604"
       id="path33"
       style="stroke:none;stroke-width:5.104;stroke-dasharray:none;stroke-opacity:1;paint-order:fill markers stroke" /><path
       d="m 238.164,203.828 c 1.276,-1.973 7.212,-2.592 14.709,-1.661 -0.262,3.03 -0.57,5.662 -0.56,7.45 l -0.022,0.375 c -0.08,-0.008 -0.161,-0.017 -0.227,-0.015 l -0.062,0.364 c -7.85,-1.314 -14.753,-1.354 -18.759,-0.298 1.906,-2.446 3.469,-4.567 4.741,-6.34 z"
       fill="#080604"
       id="path34"
       style="stroke:none;stroke-width:5.104;stroke-dasharray:none;stroke-opacity:1;paint-order:fill markers stroke" /><path
       d="m 279.583,238.372 c -0.923,4.28 -14.585,5.952 -29.806,2.672 -15.22,-3.28 -26.811,-9.408 -25.888,-13.689 0.922,-4.28 14.008,-5.092 29.229,-1.812 15.22,3.279 27.388,8.548 26.465,12.829 z"
       fill="#fcd006"
       id="path35"
       style="stroke:none;stroke-width:5.104;stroke-dasharray:none;stroke-opacity:1;paint-order:fill markers stroke" /><path
       d="m 224.186,227.083 c 1.007,-4.777 11.027,-5.218 14.999,-5.363 11.059,-0.029 22.095,2.237 32.066,7.112 2.478,1.265 4.901,2.733 6.975,4.78 1.01,1.118 2.08,2.415 2.016,4.063 -0.094,1.677 -1.642,2.555 -3.038,2.9 1.132,-0.702 2.194,-1.818 1.928,-2.87 -1.556,-7.417 -51.714,-18.173 -54.946,-10.622 z"
       fill="#080604"
       id="path36"
       style="stroke:none;stroke-width:5.104;stroke-dasharray:none;stroke-opacity:1;paint-order:fill markers stroke" /><path
       d="m 314.098,168.8 c -0.191,2.516 -1.614,4.459 -3.179,4.34 -1.565,-0.117 -2.68,-2.253 -2.489,-4.768 0.19,-2.516 1.613,-4.459 3.178,-4.34 1.566,0.117 2.68,2.253 2.49,4.768 z"
       fill="#e88a0f"
       id="path37"
       style="stroke:none;stroke-width:5.104;stroke-dasharray:none;stroke-opacity:1;paint-order:fill markers stroke" /><path
       d="m 313.391,55.844 c -0.191,2.5147 -1.613,4.4587 -3.179,4.34 -1.564,-0.1187 -2.678,-2.2533 -2.489,-4.7693 0.191,-2.5147 1.613,-4.4587 3.179,-4.3401 1.565,0.1187 2.68,2.2534 2.489,4.7694 z"
       fill="#e88a0f"
       id="path38"
       style="stroke:none;stroke-width:5.104;stroke-dasharray:none;stroke-opacity:1;paint-order:fill markers stroke" /><path
       d="m 266.87,86.7053 c -0.19,2.5147 -1.613,4.4574 -3.178,4.34 -1.565,-0.1186 -2.68,-2.2546 -2.49,-4.7693 0.19,-2.516 1.613,-4.4587 3.179,-4.34 1.565,0.1187 2.679,2.2533 2.489,4.7693 z"
       fill="#e88a0f"
       id="path39"
       style="stroke:none;stroke-width:5.104;stroke-dasharray:none;stroke-opacity:1;paint-order:fill markers stroke" /><path
       d="m 263.002,195.323 c -0.19,2.516 -1.613,4.458 -3.178,4.34 -1.565,-0.118 -2.68,-2.254 -2.489,-4.768 0.19,-2.516 1.613,-4.459 3.178,-4.34 1.565,0.117 2.679,2.253 2.489,4.768 z"
       fill="#e88a0f"
       id="path40"
       style="stroke:none;stroke-width:5.104;stroke-dasharray:none;stroke-opacity:1;paint-order:fill markers stroke" /><path
       d="m 288.363,252.663 c 0,0 -7.473,0.818 -7.693,5.249 -0.219,4.432 13.518,13.908 13.518,13.908 l 16.607,22.593 1.896,2.556 11.068,0.329 2.665,-8.533 z"
       fill="#ffffff"
       id="path41"
       style="stroke:none;stroke-width:5.104;stroke-dasharray:none;stroke-opacity:1;paint-order:fill markers stroke" /><path
       d="m 283.28,254.465 c -0.716,1.159 -1.72,1.876 -0.968,3.308 1.143,2.47 3.34,4.712 5.324,6.668 1.067,1.018 2.159,2.053 3.264,2.995 l -0.17,-0.124 c 2.745,1.727 5.297,3.868 7.006,6.66 3.846,5.88 7.992,11.646 12.328,17.179 1.156,1.317 2.351,3.192 3.799,3.986 1.501,0.751 3.519,1.122 5.451,1.347 1.968,0.205 3.945,0.279 5.99,0.975 l 0.019,0.316 c -2.009,0.886 -4.099,0.919 -6.177,0.812 -2.451,-0.17 -5.008,-0.302 -7.202,-1.69 -1.581,-1.124 -2.713,-2.656 -3.929,-4.097 -4.451,-5.628 -8.623,-11.409 -12.547,-17.42 -1.518,-2.453 -3.824,-4.357 -6.2,-5.947 -2.334,-2.093 -4.468,-4.306 -6.398,-6.815 -2.059,-2.655 -4.463,-6.779 0.17,-8.457 z"
       fill="#080604"
       id="path42"
       style="stroke:none;stroke-width:5.104;stroke-dasharray:none;stroke-opacity:1;paint-order:fill markers stroke" /><path
       d="m 324.456,261.661 c -4.682,-4.984 -7.585,1.556 -18.058,-3.097 -10.623,-4.699 -13.678,-9.165 -13.678,-9.165 l 19.272,-30.139 1.287,-2.013 0.011,-0.067 c 3.717,0.4 7.285,0.193 9.846,-0.629 -3.95,6.113 -6.868,10.759 -7.238,11.35 -0.854,0.031 -1.971,0.367 -3.336,1.37 -3.114,2.32 -3.939,3.976 -4.104,4.398 -0.024,0.068 -0.035,0.108 -0.035,0.108 l 0.425,3.004 24.252,10.402 -8.46,14.682 c -0.07,-0.076 -0.128,-0.14 -0.184,-0.204 z"
       fill="#778292"
       id="path43"
       style="stroke:none;stroke-width:5.104;stroke-dasharray:none;stroke-opacity:1;paint-order:fill markers stroke" /><path
       d="m 327.031,270.129 c 3.504,12.081 -2.097,23.068 -2.097,23.068 0,0 -7.474,0.336 -10.37,-2.054 -2.898,-2.406 -13.208,-16.826 -15.172,-20.038 -1.964,-3.212 -5.766,-5.57 -5.766,-5.57 0,0 -10.356,-8.946 -7.964,-11.83 2.404,-2.897 7.058,-4.306 7.058,-4.306 0,0 3.055,4.466 13.678,9.165 10.473,4.653 13.376,-1.887 18.058,3.097 0.456,1.379 1.251,3.903 2.575,8.468 z"
       fill="#080604"
       id="path44"
       style="stroke:none;stroke-width:5.104;stroke-dasharray:none;stroke-opacity:1;paint-order:fill markers stroke" /><path
       d="m 360.856,168.316 c 1.963,0.021 4.391,0.247 6.618,0.989 -4.378,0.554 -7.643,4.643 -7.403,9.424 0.104,2.078 0.853,3.948 2.035,5.411 -0.14,-0.113 -0.322,-0.264 -0.57,-0.439 -1.248,-0.925 -3.882,-2.608 -6.96,-3.014 -0.39,-9.084 2.07,-11.664 4.054,-12.312 0.625,-0.031 1.385,-0.07 2.226,-0.059 z"
       fill="#080604"
       id="path45"
       style="stroke:none;stroke-width:5.104;stroke-dasharray:none;stroke-opacity:1;paint-order:fill markers stroke" /><path
       d="m 364.343,167.196 c 0.264,-0.043 0.547,-0.072 0.831,-0.087 6.24,-0.313 11.522,4.002 11.805,9.635 0.012,0.225 0.023,0.435 -10e-4,0.661 -0.078,4.134 -2.9,7.746 -6.982,9.287 -1.166,0.464 -2.45,0.74 -3.798,0.807 -3.652,0.184 -6.975,-1.211 -9.135,-3.536 0,0 -0.036,0.002 -0.019,-0.014 -1.557,-1.634 -2.533,-3.733 -2.652,-6.069 -0.269,-5.379 4.119,-10.015 9.951,-10.684 z"
       fill="#080604"
       id="path46"
       style="stroke:none;stroke-width:5.104;stroke-dasharray:none;stroke-opacity:1;paint-order:fill markers stroke" /><path
       d="m 332.159,178.529 6.66,-2.697 18.031,-7.288 c 0,0 0.688,-0.1 1.78,-0.169 -1.984,0.648 -4.444,3.228 -4.054,12.312 -2.217,-0.288 -4.681,0.102 -6.99,1.954 -1.914,1.524 -5.264,5.778 -9.082,11.096 l -0.137,-0.06 -17.989,8.367 -0.204,-18.667 z"
       fill="#778292"
       id="path47"
       style="stroke:none;stroke-width:5.104;stroke-dasharray:none;stroke-opacity:1;paint-order:fill markers stroke" /><path
       d="m 338.367,193.677 0.137,0.06 c -2.02,2.839 -4.186,5.964 -6.348,9.157 l -0.014,-0.013 -11.756,-0.69 -0.008,-0.147 z"
       fill="#080604"
       id="path48"
       style="stroke:none;stroke-width:5.104;stroke-dasharray:none;stroke-opacity:1;paint-order:fill markers stroke" /><path
       d="m 320.174,183.377 0.204,18.667 0.008,0.147 11.756,0.69 0.014,0.013 c -1.554,2.294 -3.106,4.616 -4.594,6.879 -3.683,-1.016 -8.354,-1.516 -13.12,-2.597 -0.296,-0.052 -0.58,-0.119 -0.878,-0.196 l 0.012,-0.028 0.072,-28.827 3.542,0.063 c 3.126,0.043 10.864,0.201 14.969,0.341 z"
       fill="#566576"
       id="path49"
       style="stroke:none;stroke-width:5.104;stroke-dasharray:none;stroke-opacity:1;paint-order:fill markers stroke" /><path
       d="m 327.562,209.773 c -1.563,2.362 -3.05,4.666 -4.426,6.778 -2.561,0.822 -6.129,1.029 -9.846,0.629 -4.966,-0.512 -10.239,-2.089 -13.824,-4.645 l 0.061,-0.098 14.915,-5.248 v -0.013 c 4.766,1.081 9.437,1.581 13.12,2.597 z"
       fill="#080604"
       id="path50"
       style="stroke:none;stroke-width:5.104;stroke-dasharray:none;stroke-opacity:1;paint-order:fill markers stroke" /><path
       d="m 313.564,206.98 c 0.298,0.077 0.582,0.144 0.878,0.196 v 0.013 l -14.915,5.248 -0.061,0.098 c -1.704,-1.21 -3.016,-2.625 -3.752,-4.258 -3.307,-7.35 -3.318,-13.944 -0.822,-18.729 0.89,-1.687 2.071,-3.161 3.547,-4.344 l 15.219,-7.427 -0.01,0.348 -0.072,28.827 z"
       fill="#080604"
       id="path51"
       style="stroke:none;stroke-width:5.104;stroke-dasharray:none;stroke-opacity:1;paint-order:fill markers stroke" /><path
       d="m 282.762,85.7533 c 0.013,-0.0013 0.04,0.012 0.053,0.0107 7.893,0.8707 14.528,11.5173 15.165,24.208 0.646,12.839 -8.362,24.839 -16.526,25.249 0,0 -8.123,2.011 -14.45,-1.156 l 0.013,-0.014 c 2.041,0.752 4.132,0.926 6.163,0.438 8.086,-1.969 12.115,-13.96 9,-26.78 -2.997,-12.3703 -12.653,-21.4583 -20.592,-20.3103 l -1.466,0.048 c 3.164,-1.7854 14.299,-3.4774 22.64,-1.6934 z"
       fill="#566576"
       id="path52"
       style="stroke:none;stroke-width:5.104;stroke-dasharray:none;stroke-opacity:1;paint-order:fill markers stroke" /><path
       d="m 282.18,107.709 c 3.115,12.82 -0.914,24.811 -9,26.78 -2.031,0.488 -4.122,0.314 -6.163,-0.438 l -10e-4,-0.014 c -1.332,-0.48 -2.637,-1.214 -3.9,-2.166 l -3.592,-3.211 c 1.949,-0.805 3.756,-1.497 5.381,-2.1 l 2.383,1.203 c 1.084,0.305 2.182,0.357 3.237,0.104 2.189,-0.538 3.89,-2.278 4.979,-4.79 1.57,-3.562 1.887,-8.665 0.59,-14.006 -0.691,-2.863 -1.851,-5.488 -3.27,-7.699 -3.099,-4.8107 -7.448,-7.676 -11.075,-6.8 -3.483,0.8427 -5.413,4.932 -5.694,10.232 -1.362,0.536 -2.827,1.131 -4.369,1.783 -0.316,-7.3403 1.459,-13.731 5.18,-16.9883 1.112,-0.9907 2.399,-1.684 3.863,-2.0374 0.276,-0.068 0.568,-0.1226 0.859,-0.1626 7.939,-1.148 17.595,7.94 20.592,20.3103 z"
       fill="#778292"
       id="path53"
       style="stroke:none;stroke-width:5.104;stroke-dasharray:none;stroke-opacity:1;paint-order:fill markers stroke" /><path
       d="m 276.094,109.071 c 1.297,5.341 0.98,10.444 -0.59,14.006 l -0.095,-0.034 c 0,0 -2.781,0.726 -7.751,2.498 l -0.032,-0.092 c 2.426,-1.937 2.698,-7.692 0.863,-13.113 -1.769,-5.184 -5.225,-8.868 -8.24,-9.091 4.643,-1.649 7.502,-2.393 7.502,-2.393 0,0 3.027,-0.872 4.969,0.592 l 0.104,-0.072 c 1.419,2.211 2.579,4.836 3.27,7.699 z"
       fill="#aab0c2"
       id="path54"
       style="stroke:none;stroke-width:5.104;stroke-dasharray:none;stroke-opacity:1;paint-order:fill markers stroke" /><path
       d="m 275.409,123.043 0.095,0.034 c -1.089,2.512 -2.79,4.252 -4.979,4.79 -1.055,0.253 -2.153,0.201 -3.237,-0.104 l -2.383,-1.203 c 0.982,-0.383 1.9,-0.709 2.753,-1.019 4.97,-1.772 7.751,-2.498 7.751,-2.498 z"
       fill="#080604"
       id="path55"
       style="stroke:none;stroke-width:5.104;stroke-dasharray:none;stroke-opacity:1;paint-order:fill markers stroke" /><path
       d="m 260.249,103.245 c -1.273,0.451 -2.675,0.963 -4.194,1.559 0.281,-5.3 2.211,-9.3893 5.694,-10.232 3.627,-0.876 7.976,1.9893 11.075,6.8 l -0.104,0.072 c -1.942,-1.464 -4.969,-0.592 -4.969,-0.592 0,0 -2.859,0.744 -7.502,2.393 z"
       fill="#080604"
       id="path56"
       style="stroke:none;stroke-width:5.104;stroke-dasharray:none;stroke-opacity:1;paint-order:fill markers stroke" /><path
       d="m 251.686,106.587 c 1.542,-0.652 3.007,-1.247 4.369,-1.783 1.519,-0.596 2.921,-1.108 4.194,-1.559 3.015,0.223 6.471,3.907 8.24,9.091 1.835,5.421 1.563,11.176 -0.863,13.113 l 0.032,0.092 c -0.853,0.31 -1.771,0.636 -2.753,1.019 -1.625,0.603 -3.432,1.295 -5.381,2.1 -0.681,0.275 -1.387,0.564 -2.106,0.867 l -0.031,-0.079 c 1.394,-2.54 1.26,-7.072 -0.586,-11.664 -2.484,-6.124 -7.1,-10.044 -10.305,-8.735 l -0.059,-0.117 c 1.826,-0.852 3.576,-1.635 5.249,-2.345 z"
       fill="#aab0c2"
       id="path57"
       style="stroke:none;stroke-width:5.104;stroke-dasharray:none;stroke-opacity:1;paint-order:fill markers stroke" /><path
       d="m 244.182,110.02 c 0.769,-0.372 1.512,-0.729 2.255,-1.088 l 0.059,0.117 c 3.205,-1.309 7.821,2.611 10.305,8.735 1.846,4.592 1.98,9.124 0.586,11.664 l 0.031,0.079 c -0.483,0.212 -0.993,0.424 -1.503,0.65 -2.039,0.863 -4.206,1.827 -6.503,2.89 l -0.121,-0.02 c 0.468,-2.12 0.008,-4.634 -1.292,-8.172 -1.624,-4.418 -4.933,-9.164 -10.698,-11.251 2.35,-1.32 4.666,-2.517 6.881,-3.604 z"
       fill="#aab0c2"
       id="path58"
       style="stroke:none;stroke-width:5.104;stroke-dasharray:none;stroke-opacity:1;paint-order:fill markers stroke" /><path
       d="m 237.301,113.624 c 5.765,2.087 9.074,6.833 10.698,11.251 1.3,3.538 3.018,7.785 2.551,9.905 -0.301,1.444 -1.025,2.708 -2.189,3.995 -1.405,1.538 -5.806,4.209 -10.525,9.118 -4.637,3.34 -8.62,9.467 -16.193,13.299 l -1.132,-0.212 c 1.071,-1.776 1.69,-3.824 1.9,-6.011 0.427,-0.274 0.838,-0.601 1.207,-0.954 4.535,-4.34 3.912,-14.067 -1.95,-20.195 -4.735,-4.968 -11.478,-6.044 -16.286,-3.96 -0.659,-0.1 -1.248,-0.137 -1.716,-0.155 -0.816,-0.025 -1.293,0.039 -1.293,0.039 0,0 -3.221,1.257 -7.204,3.553 12.845,-18.534 35.16,-20.805 35.16,-20.805 2.641,-0.025 4.958,0.379 6.972,1.132 z"
       fill="#778292"
       id="path59"
       style="stroke:none;stroke-width:5.104;stroke-dasharray:none;stroke-opacity:1;paint-order:fill markers stroke" /><path
       d="m 223.528,133.255 c 5.862,6.126 6.484,15.854 1.95,20.194 -0.369,0.352 -0.78,0.68 -1.207,0.955 0.623,-6.199 -1.998,-13.463 -6.665,-18.381 -3.352,-4.799 -7.578,-6.282 -10.364,-6.728 4.808,-2.084 11.551,-1.008 16.286,3.96 z"
       fill="#080604"
       id="path60"
       style="stroke:none;stroke-width:5.104;stroke-dasharray:none;stroke-opacity:1;paint-order:fill markers stroke" /><path
       d="m 224.247,153.933 c -0.21,2.187 -0.828,4.235 -1.9,6.011 -0.704,1.143 -1.586,2.175 -2.677,3.044 -0.782,1.188 -0.766,1.24 -3.232,3.18 l -4.162,-5.251 c 8.034,-4.302 8.427,-15.069 1.852,-22.388 -8.582,-9.528 -10.888,7.288 -10.888,7.288 -0.053,0.018 -0.091,0.046 -0.143,0.075 l -4.405,-3.971 c 0.026,-0.001 0.039,-0.016 0.066,-0.03 0,0 -0.609,-10.248 6.744,-13.222 0.468,0.018 1.057,0.054 1.716,0.155 2.786,0.447 7.013,1.929 10.364,6.728 4.667,4.919 7.288,12.183 6.665,18.381 z"
       fill="#778292"
       id="path61"
       style="stroke:none;stroke-width:5.104;stroke-dasharray:none;stroke-opacity:1;paint-order:fill markers stroke" /><path
       d="m 202.638,165.98 9.625,-5.049 0.013,-0.014 4.162,5.251 c -0.064,0.056 -0.128,0.1 -0.192,0.156 -14.045,9.291 -19.621,10.879 -19.621,10.879 l -3.222,-4.604 z"
       fill="#566576"
       id="path62"
       style="stroke:none;stroke-width:5.104;stroke-dasharray:none;stroke-opacity:1;paint-order:fill markers stroke" /><path
       d="m 203.097,145.892 c 0.052,-0.029 0.09,-0.057 0.143,-0.075 0,0 2.306,-16.816 10.888,-7.288 6.575,7.319 6.182,18.086 -1.852,22.388 l -0.013,0.014 -9.625,5.049 c 2.892,-5.419 0.788,-11.68 -5.197,-16.8 l -0.043,-0.065 c 2.057,-1.304 4.029,-2.446 5.699,-3.223 z"
       fill="#080604"
       id="path63"
       style="stroke:none;stroke-width:5.104;stroke-dasharray:none;stroke-opacity:1;paint-order:fill markers stroke" /><path
       d="m 198.692,141.921 c -6.552,3.52 -15.302,11.37 -18.924,14.742 0.737,-7.646 3.62,-12.971 7.078,-16.683 2.977,-3.193 6.837,-5.817 10.159,-7.72 3.983,-2.296 7.204,-3.552 7.204,-3.552 0,0 0.477,-0.064 1.293,-0.039 -7.353,2.974 -6.744,13.222 -6.744,13.222 -0.027,0.014 -0.04,0.029 -0.066,0.03 z"
       fill="#aab0c2"
       id="path64"
       style="stroke:none;stroke-width:5.104;stroke-dasharray:none;stroke-opacity:1;paint-order:fill markers stroke" /><path
       d="m 198.692,141.921 4.405,3.971 c -1.67,0.777 -3.642,1.919 -5.699,3.223 -6.728,4.25 -14.228,10.154 -14.228,10.154 l -3.493,-1.773 c 0.025,-0.281 0.051,-0.564 0.091,-0.833 3.622,-3.372 12.372,-11.222 18.924,-14.742 z"
       fill="#566576"
       id="path65"
       style="stroke:none;stroke-width:5.104;stroke-dasharray:none;stroke-opacity:1;paint-order:fill markers stroke" /><path
       d="m 255.862,104.784 c 2.639,-1.267 5.548,0.784 7.259,2.716 4.089,4.315 7.203,15.977 1.035,19.641 -0.987,0.355 -1.911,0.514 -2.915,0.738 1.025,-0.707 2.351,-1.083 3.137,-2.051 3.828,-5.073 -1.256,-21.535 -8.516,-21.044 z"
       fill="#778292"
       id="path66"
       style="stroke:none;stroke-width:5.104;stroke-dasharray:none;stroke-opacity:1;paint-order:fill markers stroke" /><path
       d="m 243.531,110.403 c 2.352,-1.371 5.275,0.324 7.036,1.985 4.455,4.405 7.138,11.62 4.745,17.675 -0.537,1.182 -1.563,2.265 -2.805,2.525 1.034,-0.716 1.587,-1.763 1.819,-2.883 1.428,-5.618 -3.88,-19.914 -10.795,-19.302 z"
       fill="#778292"
       id="path67"
       style="stroke:none;stroke-width:5.104;stroke-dasharray:none;stroke-opacity:1;paint-order:fill markers stroke" /><path
       d="m 245.442,129.939 c 0.334,2.505 -0.66,4.706 -2.219,4.913 -1.56,0.208 -3.095,-1.656 -3.428,-4.163 -0.334,-2.505 0.66,-4.705 2.219,-4.913 1.56,-0.208 3.095,1.656 3.428,4.163 z"
       fill="#566576"
       id="path68"
       style="stroke:none;stroke-width:5.104;stroke-dasharray:none;stroke-opacity:1;paint-order:fill markers stroke" /><path
       d="m 235.875,234.505 -12.788,23.207 c -0.688,1.249 0.224,2.971 1.136,2.145 l 8.03,-7.269 c 0.857,-0.775 1.758,0.722 1.205,2.003 l -8.901,20.62 c -0.617,1.428 0.546,2.97 1.369,1.814 l 11.801,-16.56 c 0.705,-0.99 1.767,0.02 1.491,1.418 l -1.653,8.362 c -0.293,1.487 0.903,2.472 1.571,1.294 l 13.952,-23.798 -2.885,10.839 c 0.36,1.216 14.002,-16.441 16.316,-19.672 0.65,-0.908 -3.55,-6.263 -4.407,-6.219 l -25.535,1.287 c -0.268,0.013 -0.524,0.207 -0.702,0.529 z"
       fill="#fcd006"
       id="path69"
       style="stroke:none;stroke-width:5.104;stroke-dasharray:none;stroke-opacity:1;paint-order:fill markers stroke" /><path
       d="m 388.514,129.053 -0.02,0.135 c -5.614,3.592 -10.458,5.224 -10.458,5.224 -19.245,-0.167 -27.801,-21.124 -28.122,-21.935 l 5.658,1.036 -0.032,0.15 c 0,0 8.926,10.244 14.636,12.04 4.748,1.497 15.006,2.917 18.338,3.35 z"
       fill="#080604"
       id="path70"
       style="stroke:none;stroke-width:5.104;stroke-dasharray:none;stroke-opacity:1;paint-order:fill markers stroke" /><path
       d="m 405.922,62.732 c 9.938,3.7893 15.549,17.176 12.524,29.8933 -2.667,11.1897 -11.103,18.1457 -19.85,17.0947 2.511,-0.633 4.962,-4.817 4.962,-4.817 0.902,-1.368 1.608,-2.982 2.046,-4.788 1.791,-7.5763 -1.965,-15.7017 -8.392,-18.1497 -6.426,-2.4493 -13.097,1.7147 -14.888,9.2893 l -0.208,0.0347 c -0.72,-3.9546 -0.66,-8.2026 0.332,-12.3733 3.027,-12.732 13.536,-19.9733 23.474,-16.184 z"
       fill="#ffffff"
       id="path71"
       style="stroke:none;stroke-width:5.104;stroke-dasharray:none;stroke-opacity:1;paint-order:fill markers stroke" /><path
       d="m 397.183,81.9267 c 6.436,2.4506 10.197,10.588 8.404,18.1733 -0.439,1.809 -1.145,3.425 -2.049,4.796 0,0 -2.454,4.189 -4.97,4.824 -0.013,-0.001 -0.013,-0.001 -0.013,-0.001 -1.207,-0.144 -2.42,-0.444 -3.615,-0.898 -6.68,-2.558 -11.308,-9.149 -12.77,-17.2677 l 0.105,-0.324 c 1.793,-7.5866 8.473,-11.7546 14.908,-9.3026 z"
       fill="#080604"
       id="path72"
       style="stroke:none;stroke-width:5.104;stroke-dasharray:none;stroke-opacity:1;paint-order:fill markers stroke" /><path
       d="m 361.6,51.9213 c 9.824,4.1267 15.01,17.712 11.57,30.3534 -2.68,9.8386 -9.782,16.208 -17.435,16.5866 2.108,-1.7626 4.152,-5.1893 4.968,-8.212 2.067,-7.5613 -1.673,-15.908 -8.323,-18.6653 -6.396,-2.6413 -13.174,0.8387 -15.505,7.8187 -0.605,-4.012 -0.405,-8.288 0.724,-12.4707 3.425,-12.628 14.177,-19.536 24.001,-15.4107 z"
       fill="#ffffff"
       id="path73"
       style="stroke:none;stroke-width:5.104;stroke-dasharray:none;stroke-opacity:1;paint-order:fill markers stroke" /><mask
       id="mask1_1_2"
       maskUnits="userSpaceOnUse"
       x="341"
       y="50"
       width="34"
       height="49"><path
         d="m 361.656,51.9053 c -7.436,-3.0973 -15.392,0.0027 -20.366,7.068 4.765,-4.936 11.326,-6.828 17.525,-4.2546 9.571,3.9746 14.631,17.0346 11.293,29.18 -1.932,7.0213 -6.244,12.1946 -11.386,14.5413 6.546,-1.6387 12.285,-7.572 14.637,-16.1467 3.465,-12.6493 -1.779,-26.2506 -11.703,-30.388 z"
         fill="#ffffff"
         id="path74" /></mask><g
       mask="url(#mask1_1_2)"
       id="g75"
       style="stroke:none;stroke-width:5.104;stroke-dasharray:none;stroke-opacity:1;paint-order:fill markers stroke"><path
         d="m 361.656,51.9053 c -7.436,-3.0973 -15.392,0.0027 -20.366,7.068 4.765,-4.936 11.326,-6.828 17.525,-4.2546 9.571,3.9746 14.631,17.0346 11.293,29.18 -1.932,7.0213 -6.244,12.1946 -11.386,14.5413 6.546,-1.6387 12.285,-7.572 14.637,-16.1467 3.465,-12.6493 -1.779,-26.2506 -11.703,-30.388 z"
         fill="url(#paint0_linear_1_2)"
         id="path75"
         style="fill:url(#paint0_linear_1_2);stroke:none;stroke-width:5.104;stroke-dasharray:none;stroke-opacity:1;paint-order:fill markers stroke" /></g><mask
       id="mask2_1_2"
       maskUnits="userSpaceOnUse"
       x="386"
       y="61"
       width="34"
       height="49"><path
         d="m 406.21,62.556 c -7.524,-2.8453 -15.371,0.5173 -20.111,7.7387 4.6,-5.088 11.092,-7.1974 17.364,-4.8347 9.685,3.648 15.16,16.5213 12.217,28.7627 -1.704,7.0763 -5.842,12.3883 -10.902,14.9023 6.484,-1.856 12.025,-7.974 14.097,-16.6143 3.053,-12.7494 -2.621,-26.156 -12.665,-29.9547 z"
         fill="#ffffff"
         id="path76" /></mask><g
       mask="url(#mask2_1_2)"
       id="g77"
       style="stroke:none;stroke-width:5.104;stroke-dasharray:none;stroke-opacity:1;paint-order:fill markers stroke"><path
         d="m 406.21,62.556 c -7.524,-2.8453 -15.371,0.5173 -20.111,7.7387 4.6,-5.088 11.092,-7.1974 17.364,-4.8347 9.685,3.648 15.16,16.5213 12.217,28.7627 -1.704,7.0763 -5.842,12.3883 -10.902,14.9023 6.484,-1.856 12.025,-7.974 14.097,-16.6143 3.053,-12.7494 -2.621,-26.156 -12.665,-29.9547 z"
         fill="url(#paint1_linear_1_2)"
         id="path77"
         style="fill:url(#paint1_linear_1_2);stroke:none;stroke-width:5.104;stroke-dasharray:none;stroke-opacity:1;paint-order:fill markers stroke" /></g><path
       d="m 353.667,70.6053 c 7.183,2.9214 11.233,11.7347 9.015,19.7094 -0.875,3.188 -3.076,6.8 -5.348,8.6546 -2.346,0.1134 -4.746,-0.2813 -7.091,-1.252 -7.108,-2.9306 -11.972,-10.3173 -13.3,-18.8893 2.504,-7.36 9.815,-11.02 16.724,-8.2227 z"
       fill="#080604"
       id="path78"
       style="stroke:none;stroke-width:5.104;stroke-dasharray:none;stroke-opacity:1;paint-order:fill markers stroke" /><path
       d="m 394.566,121.125 v 0.014 c -1.25,3.16 -6.348,8.129 -6.348,8.129 0,0 -0.22,-0.029 -0.607,-0.089 -0.129,-0.022 -0.257,-0.04 -0.425,-0.059 -3.196,-0.44 -13.034,-1.881 -17.588,-3.388 -5.479,-1.808 -14.058,-12.069 -14.058,-12.069 l 0.031,-0.15 z"
       fill="#ffffff"
       id="path79"
       style="stroke:none;stroke-width:5.104;stroke-dasharray:none;stroke-opacity:1;paint-order:fill markers stroke" /><path
       d="m 342.904,113.061 c 4.476,-3.16 11.543,-5.062 16.632,-2.412 -5.589,1.092 -10.874,2.747 -16.632,2.412 z"
       fill="#95461d"
       id="path80"
       style="stroke:none;stroke-width:5.104;stroke-dasharray:none;stroke-opacity:1;paint-order:fill markers stroke" /><path
       d="m 366.155,140.147 c 4.44,2.118 7.903,3.085 12.62,3.68 -3.925,3.381 -11.099,1.302 -12.62,-3.68 z"
       fill="#95461d"
       id="path81"
       style="stroke:none;stroke-width:5.104;stroke-dasharray:none;stroke-opacity:1;paint-order:fill markers stroke" /><path
       d="m 337.886,96.5227 c 0,0 20.569,-2.2134 24.437,3.3813 l -16.511,3.752 z"
       fill="#fab10b"
       id="path82"
       style="stroke:none;stroke-width:5.104;stroke-dasharray:none;stroke-opacity:1;paint-order:fill markers stroke" /><path
       d="m 384.758,105.105 c 0,0 20.677,0.522 23.802,6.582 l -16.846,1.54 z"
       fill="#fab10b"
       id="path83"
       style="stroke:none;stroke-width:5.104;stroke-dasharray:none;stroke-opacity:1;paint-order:fill markers stroke" /><path
       d="m 384.091,128.761 c 0,0 5.049,0.408 7.301,-2.744 0,0 -4.545,9.086 -13.356,8.395 z"
       fill="#080604"
       id="path84"
       style="stroke:none;stroke-width:5.104;stroke-dasharray:none;stroke-opacity:1;paint-order:fill markers stroke" /><path
       d="m 365.24,260.152 2.855,-5.108 -15.255,-8.961 -44.382,-12.414 0.133,2.664 5.579,5.794 45.004,14.885 4.545,3.356 z"
       fill="#ffffff"
       id="path85"
       style="stroke:none;stroke-width:5.104;stroke-dasharray:none;stroke-opacity:1;paint-order:fill markers stroke" /><path
       d="m 368.38,210.979 -7.884,28.538 c -1.269,-1.618 -2.525,-3.237 -3.684,-4.781 -4.965,-6.625 -11.938,-2.977 -16.33,-1.916 7.121,-17.432 20.374,-48.283 20.374,-48.283 l 0.68,-0.836 c 0.248,0.175 0.43,0.326 0.57,0.439 -0.014,0.015 0.013,0.013 0.013,0.013 1.64,2.08 4.147,3.343 6.889,3.204 1.012,-0.05 1.975,-0.285 2.85,-0.69 1.242,0.805 1.922,4.79 1.922,4.79 z"
       fill="#aab0c2"
       id="path86"
       style="stroke:none;stroke-width:5.104;stroke-dasharray:none;stroke-opacity:1;paint-order:fill markers stroke" /><path
       d="m 315.898,227.901 c 1.452,-0.045 2.201,0.771 2.201,0.771 0,0 16.428,4.128 20.34,4.412 0.589,0.036 1.279,-0.066 2.043,-0.264 4.392,-1.061 11.365,-4.709 16.33,1.916 1.159,1.544 2.415,3.163 3.684,4.781 5.098,6.593 10.155,13.455 7.983,17.501 -1.025,1.922 -2.125,2.605 -2.984,2.794 8.861,-6.185 -51.196,-24.394 -57.037,-26.143 0.165,-0.422 0.99,-2.078 4.104,-4.398 1.365,-1.003 2.482,-1.339 3.336,-1.37 z"
       fill="#080604"
       id="path87"
       style="stroke:none;stroke-width:5.104;stroke-dasharray:none;stroke-opacity:1;paint-order:fill markers stroke" /><path
       d="m 333.275,250.647 -19.065,-7.72 -5.27,-5.436 c 0,0 -0.19,-0.481 -0.166,-0.55 5.841,1.75 65.174,19.539 56.314,25.726 -0.95,0.221 -1.624,-0.173 -1.624,-0.173 z"
       fill="#080604"
       id="path88"
       style="stroke:none;stroke-width:5.104;stroke-dasharray:none;stroke-opacity:1;paint-order:fill markers stroke" /><path
       d="m 327.562,209.773 c 1.488,-2.263 3.04,-4.585 4.594,-6.879 2.162,-3.193 4.328,-6.318 6.348,-9.157 3.818,-5.318 7.168,-9.572 9.082,-11.096 2.309,-1.852 4.773,-2.242 6.99,-1.954 3.078,0.406 5.712,2.089 6.96,3.014 l -0.68,0.836 c 0,0 -13.253,30.851 -20.374,48.283 -0.764,0.198 -1.454,0.3 -2.043,0.264 -3.912,-0.284 -20.34,-4.412 -20.34,-4.412 0,0 -0.749,-0.816 -2.201,-0.771 0.37,-0.591 3.288,-5.237 7.238,-11.35 1.376,-2.112 2.863,-4.416 4.426,-6.778 z"
       fill="#778292"
       id="path89"
       style="stroke:none;stroke-width:5.104;stroke-dasharray:none;stroke-opacity:1;paint-order:fill markers stroke" /><path
       d="m 332.632,223.873 c -0.792,2.395 -2.641,3.938 -4.132,3.444 -1.49,-0.492 -2.056,-2.833 -1.265,-5.228 0.792,-2.396 2.643,-3.937 4.132,-3.445 1.491,0.493 2.057,2.833 1.265,5.229 z"
       fill="#aab0c2"
       id="path90"
       style="stroke:none;stroke-width:5.104;stroke-dasharray:none;stroke-opacity:1;paint-order:fill markers stroke" /><path
       d="m 345.323,231.241 c 0,0 16.083,-10.61 15.264,8.39 0,0 -2.519,-3.907 -5.761,-6.537 -2.426,-1.966 -2.891,-2.083 -9.503,-1.853 z"
       fill="#566576"
       id="path91"
       style="stroke:none;stroke-width:5.104;stroke-dasharray:none;stroke-opacity:1;paint-order:fill markers stroke" /></g><path
     d="m 189.38726,321.08787 q -0.33121,-0.41803 -0.42462,-0.9224 -0.0769,-0.48347 0.27848,-0.76499 l 13.83681,-10.96283 q 0.29262,-0.23185 0.6838,-0.16753 0.40773,0.0852 0.70582,0.46144 l 3.22923,4.0758 q 1.01017,1.27499 1.37835,2.68439 0.38907,1.39284 -0.15486,2.81044 -0.52303,1.40103 -2.19515,2.72584 l -0.16721,0.13248 q -1.67212,1.32482 -3.1931,1.50922 -1.50442,0.2053 -2.82538,-0.51725 -1.2835,-0.71822 -2.32679,-2.03501 l -2.05347,-2.59179 -5.16267,4.09036 q -0.35533,0.28152 -0.82496,0.0752 -0.45308,-0.18538 -0.78428,-0.60341 z m 8.52764,-4.95324 2.05346,2.59178 q 0.92737,1.17049 2.10959,1.28851 1.19877,0.13892 2.57827,-0.95405 l 0.25082,-0.19872 q 1.3795,-1.09297 1.49752,-2.27518 0.15549,-1.17788 -0.77188,-2.34836 l -2.05347,-2.59179 z m 0.53566,15.80892 q -0.4031,-0.42626 -0.46481,-0.91843 -0.0434,-0.4728 0.2085,-0.711 l 7.84697,-7.42059 q 0.29063,-0.27484 0.72152,-0.16849 0.46859,0.10741 0.87169,0.53366 0.36645,0.38751 0.42921,0.84199 0.0821,0.43615 -0.20849,0.71099 l -0.85251,0.80619 q 0.60842,-0.17165 1.30636,-0.17102 0.71625,0.02 1.40682,0.28452 0.70994,0.24619 1.24129,0.80807 l 0.58632,0.62001 q 0.29316,0.31 0.24177,0.79902 -0.032,0.47069 -0.40014,0.81882 -0.36813,0.34813 -0.85925,0.37214 -0.49112,0.024 -0.78428,-0.286 l -0.58632,-0.62 q -0.54967,-0.58126 -1.41146,-0.79396 -0.86178,-0.21271 -1.83097,0.0432 -0.93149,0.25694 -1.82275,1.09977 l -3.97193,3.75611 q -0.25187,0.23819 -0.75816,0.12973 -0.48797,-0.0891 -0.90938,-0.53471 z m 9.6233,9.72372 q -1.34974,-1.21094 -1.9367,-2.63318 -0.58696,-1.42225 -0.39889,-2.82985 0.20588,-1.42745 1.27436,-2.6184 l 1.69175,-1.88568 q 0.94382,-1.052 2.28315,-1.42674 1.35917,-0.35694 2.75509,-0.036 1.41373,0.30104 2.54513,1.31609 1.07186,0.96163 1.53768,2.23937 0.48363,1.25789 0.27163,2.57237 -0.19216,1.33229 -1.15379,2.40414 -0.74793,0.83367 -1.32651,0.95945 -0.57858,0.12578 -1.06665,-0.16879 -0.48806,-0.29457 -0.9446,-0.70415 l -4.18817,-3.75747 -0.40959,0.45653 q -0.89039,0.99246 -0.71006,2.22902 0.21799,1.23452 1.34939,2.24957 0.69472,0.62328 1.30949,0.81656 0.61476,0.19328 1.07277,0.28176 0.45801,0.0885 0.71605,0.31998 0.25804,0.2315 0.29421,0.55057 0.0362,0.31906 -0.0605,0.62644 -0.0966,0.30738 -0.25691,0.48603 -0.26712,0.29773 -1.0045,0.28105 -0.71752,0.001 -1.68345,-0.39972 -0.94811,-0.42071 -1.96042,-1.32891 z m 2.50099,-7.85908 3.29497,2.95612 q 0.43668,0.39177 0.68247,0.39733 0.26564,0.0234 0.58619,-0.33392 0.463,-0.51608 0.59674,-1.18426 0.15154,-0.68804 -0.0913,-1.33581 -0.22502,-0.66762 -0.80065,-1.18405 -0.55578,-0.49862 -1.22601,-0.67001 -0.67022,-0.1714 -1.32208,-0.004 -0.65185,0.16753 -1.15047,0.7233 z m 4.00726,13.08873 q -0.47394,-0.34578 -0.65562,-0.77542 -0.14443,-0.43547 0.0913,-0.7586 l 8.06293,-11.05134 q 0.86445,-1.18484 2.20052,-1.79452 1.35762,-0.59396 2.93363,-0.4014 1.57602,0.19256 3.14862,1.33991 0.86171,0.62869 1.53887,1.41983 0.69288,0.76959 0.95842,1.49149 0.28127,0.70035 -0.0331,1.1312 -0.11002,0.1508 -0.43194,0.41107 -0.30622,0.23872 -0.68871,0.35578 -0.36094,0.13277 -0.641,-0.0716 -0.23696,-0.17289 -0.39711,-0.58681 -0.12288,-0.41975 -0.4769,-0.97513 -0.33831,-0.57692 -1.22155,-1.22133 -0.68937,-0.50295 -1.36938,-0.702 -0.65848,-0.18333 -1.25464,-0.0901 -0.58044,0.0717 -1.08284,0.39832 -0.46514,0.32083 -0.84235,0.83785 l -1.22595,1.68032 2.39123,1.74461 q 0.32314,0.23576 0.28533,0.60429 -0.0163,0.38425 -0.25202,0.70739 -0.23576,0.32314 -0.59671,0.45591 -0.3394,0.14849 -0.66254,-0.0873 l -2.39123,-1.74461 -5.68963,7.79841 q -0.23576,0.32314 -0.73761,0.28709 -0.48613,-0.0576 -0.96007,-0.40337 z m 7.0875,5.17096 q -0.47393,-0.34578 -0.62418,-0.8185 -0.15025,-0.47273 0.0541,-0.75278 l 6.36547,-8.72474 q 0.23576,-0.32314 0.70035,-0.28127 0.48031,0.0203 0.95425,0.36611 0.47394,0.34578 0.6399,0.79697 0.20323,0.44535 -0.0325,0.76849 l -6.36547,8.72474 q -0.20432,0.28006 -0.72189,0.26555 -0.49603,0.001 -0.96997,-0.34457 z m 5.05805,3.50035 q -0.27714,-0.15999 -0.53999,-0.55807 -0.25309,-0.36165 -0.37023,-0.79878 -0.0941,-0.42379 0.0793,-0.72402 0.13333,-0.23094 0.39189,-0.3588 l 5.23691,-2.45758 -0.46218,-5.43978 q -0.0293,-0.10928 -0.009,-0.25142 0.0205,-0.14214 0.0871,-0.25761 0.17333,-0.30023 0.58736,-0.4307 0.43712,-0.11715 0.9133,-0.0886 0.47617,0.0286 0.7764,0.20189 0.11547,0.0667 0.27356,0.21951 0.15809,0.15285 0.1669,0.40427 l 0.19933,5.0417 4.47552,-2.3121 q 0.22213,-0.11809 0.41046,-0.0709 0.22475,0.0374 0.38642,0.1307 0.27713,0.15999 0.53998,0.55807 0.27618,0.37498 0.3569,0.82187 0.11714,0.43713 -0.0562,0.73735 -0.10666,0.18476 -0.40165,0.32238 l -4.97835,2.32972 0.50385,5.74097 q 0.0293,0.10928 0.009,0.25141 -0.0205,0.14214 -0.10047,0.28071 -0.14665,0.25404 -0.57402,0.40761 -0.41403,0.13047 -0.8902,0.10191 -0.45308,-0.0152 -0.7764,-0.20189 -0.16166,-0.0933 -0.30642,-0.26927 -0.135,-0.13952 -0.13405,-0.35451 l -0.31742,-5.26384 -4.69408,2.37067 q -0.17237,0.0852 -0.42022,0.0345 -0.22476,-0.0374 -0.36332,-0.11737 z m 13.92579,-0.0226 q -0.62282,-0.30465 -0.8548,-0.92279 -0.22027,-0.64209 0.0375,-1.16909 0.2695,-0.55095 0.88816,-0.72331 0.63038,-0.19631 1.25319,0.10834 0.62282,0.30465 0.8548,0.92279 0.24371,0.59419 -0.0258,1.14514 -0.25779,0.527 -0.89988,0.74726 -0.63038,0.19632 -1.25319,-0.10834 z m 4.91937,9.55688 q -1.16216,-0.4693 -1.87164,-1.56106 -0.70949,-1.09175 -0.87832,-2.45408 -0.13413,-1.37707 0.3851,-2.66286 l 0.91863,-2.27486 q 0.54918,-1.35997 1.58197,-2.2083 1.0675,-0.86307 2.31618,-1.10656 1.25867,-0.26822 2.47027,0.22105 1.18689,0.47929 1.76322,1.40224 0.58633,0.89822 0.69239,1.77506 l 3.17527,-7.86309 q 0.14977,-0.3709 0.63527,-0.43368 0.49548,-0.0875 1.03946,0.13217 0.54399,0.21967 0.79031,0.60673 0.28104,0.37232 0.13126,0.74322 l -6.85978,16.98725 q -0.12981,0.32144 -0.61055,0.44366 -0.45601,0.1322 -0.99999,-0.0875 -0.46981,-0.18972 -0.73087,-0.61149 -0.23634,-0.41179 -0.10654,-0.73323 l 0.34948,-0.86544 q -0.68044,0.61675 -1.85969,0.83076 -1.16928,0.18928 -2.33143,-0.28002 z m 1.67042,-2.00003 q 0.71707,0.28957 1.44555,0.1236 0.72847,-0.16597 1.23964,-0.50597 0.54587,-0.35474 0.6657,-0.65147 l 1.14829,-2.84357 q 0.3295,-0.81598 0.18826,-1.53447 -0.14124,-0.71849 -0.59013,-1.24487 -0.43891,-0.5511 -1.05708,-0.80073 -0.69235,-0.27959 -1.43556,-0.14833 -0.7185,0.14124 -1.30431,0.59489 -0.56109,0.46364 -0.82071,1.10653 l -0.91863,2.27486 q -0.25961,0.64289 -0.18779,1.39087 0.0965,0.75796 0.51548,1.35852 0.41894,0.60055 1.11129,0.88014 z m 12.52195,6.96048 q -1.73905,-0.51371 -2.88005,-1.5459 -1.141,-1.03219 -1.57583,-2.38409 -0.42727,-1.37748 0.026,-2.91193 l 0.71767,-2.42956 q 0.40039,-1.35543 1.44887,-2.26918 1.07405,-0.90618 2.47246,-1.21605 1.40596,-0.33545 2.86369,0.0952 1.38101,0.40794 2.35054,1.36168 0.97709,0.92816 1.35031,2.20625 0.39879,1.28564 -0.009,2.66665 -0.31729,1.07412 -0.78574,1.43625 -0.46844,0.36213 -1.03572,0.30578 -0.56728,-0.0564 -1.15549,-0.2301 l -5.39616,-1.594 -0.17376,0.58821 q -0.37772,1.27871 0.31632,2.3179 0.72716,1.02117 2.1849,1.45178 0.89509,0.2644 1.53327,0.17486 0.63818,-0.0895 1.08979,-0.20639 0.4516,-0.11685 0.78407,-0.0187 0.33246,0.0982 0.50219,0.3708 0.16974,0.27258 0.21451,0.59167 0.0448,0.31909 -0.0232,0.54926 -0.11332,0.38361 -0.78636,0.6853 -0.64747,0.30925 -1.69192,0.3622 -1.0369,0.0274 -2.34119,-0.3579 z m -1.11756,-8.17137 4.24532,1.25405 q 0.56264,0.1662 0.78698,0.0656 0.24993,-0.093 0.38591,-0.55335 0.19641,-0.66493 0.0301,-1.32577 -0.15872,-0.68642 -0.65627,-1.16706 -0.49,-0.50622 -1.23165,-0.7253 -0.71608,-0.21153 -1.39494,-0.0784 -0.67887,0.13314 -1.19555,0.56443 -0.51668,0.4313 -0.72821,1.14738 z m 12.46894,10.97621 q -0.44477,-0.0877 -0.78011,-0.31687 -0.31433,-0.19787 -0.3674,-0.48013 l -2.30654,-11.46258 q -0.0107,-0.0836 -0.0372,-0.22477 -3.7e-4,-0.13598 0.0203,-0.24063 0.067,-0.34012 0.40642,-0.54502 0.36553,-0.19974 0.78893,-0.27935 0.44955,-0.0745 0.81584,-0.002 0.26163,0.0516 0.47131,0.22881 0.241,0.15623 0.26791,0.43334 l 1.50974,8.88648 4.70678,-7.60662 q 0.15623,-0.241 0.39132,-0.33055 0.24025,-0.11572 0.55421,-0.0538 0.2878,0.0567 0.67546,0.29624 0.41383,0.24466 0.67105,0.59435 0.28855,0.32868 0.22665,0.64264 -0.0258,0.13081 -0.0726,0.23031 -0.0468,0.0995 -0.11975,0.19383 l -6.45812,9.73474 q -0.18239,0.23584 -0.57447,0.29445 -0.37106,0.0899 -0.78968,0.007 z"
     id="text2"
     style="font-size:26.6667px;font-family:Dosis;-inkscape-font-specification:'Dosis, @wght=600';font-variation-settings:'wght' 600;letter-spacing:1px;fill:#000000;stroke-width:7.55906"
     aria-label="Prefixdev" /></svg>
