<?xml version="1.0" encoding="UTF-8" standalone="no"?>
<svg
   xmlns:dc="http://purl.org/dc/elements/1.1/"
   xmlns:cc="http://creativecommons.org/ns#"
   xmlns:rdf="http://www.w3.org/1999/02/22-rdf-syntax-ns#"
   xmlns:svg="http://www.w3.org/2000/svg"
   xmlns="http://www.w3.org/2000/svg"
   xmlns:sodipodi="http://sodipodi.sourceforge.net/DTD/sodipodi-0.dtd"
   xmlns:inkscape="http://www.inkscape.org/namespaces/inkscape"
   inkscape:export-ydpi="17.914656"
   inkscape:export-xdpi="17.914656"
   inkscape:export-filename="C:\Users\engelen\projects_wdir\iMOD6\logo\components\iMOD-python.png"
   inkscape:version="1.0 (4035a4fb49, 2020-05-01)"
   sodipodi:docname="imod-coupler-logo.svg"
   id="svg6"
   preserveAspectRatio="xMidYMid meet"
   viewBox="0 0 27.328664 37.63057"
   height="37.630569pt"
   width="27.328665pt"
   version="1.0">
  <path
     id="path34"
     d="m 21.289118,16.588115 c -0.68022,0 -1.312186,0.59287 -1.952641,1.833984 -0.68022,1.32067 -1.260577,3.097858 -2.191402,6.717774 -0.8115,3.166431 -1.109783,3.977915 -1.43994,3.930175 -0.254595,-0.0358 -0.58863,-1.093107 -1.089848,-3.432129 -0.07956,-0.373926 -0.187072,-0.883182 -0.23877,-1.133789 -0.966637,-4.518932 -2.029507,-6.739142 -3.616702,-7.558593 -0.501218,-0.262538 -0.687518,-0.249589 -0.9580051,0.05273 -0.28641,0.314259 -0.5211601,1.001574 -0.7558576,2.214844 -0.0318,0.163094 -0.18324,1.042738 -0.3383775,1.949707 -0.31824,1.901453 -0.45798,2.621623 -0.6767625,3.540528 -0.6921675,2.860133 -1.6906275,4.554961 -3.0351525,5.135742 -0.11934,0.05171 -0.22266,0.106722 -0.22266,0.118652 0,0.03978 0.4064475,0.119705 0.720705,0.143555 0.3500475,0.02785 0.8427525,-0.05936 1.1689425,-0.206544 0.720015,-0.318231 1.4365425,-1.106062 1.97754,-2.184081 0.541005,-1.074042 0.9623326,-2.395697 1.5629927,-4.87793 0.254587,-1.046192 0.43395,-1.60309 0.577147,-1.762207 l 0.11133,-0.127441 0.13476,0.143554 c 0.250605,0.266526 0.414428,0.783792 1.12647,3.596192 0.16707,0.656356 0.33813,1.308454 0.377925,1.45166 0.03983,0.143207 0.130058,0.454616 0.197753,0.697265 0.13524,0.477354 0.43878,1.430792 0.558112,1.749024 0.489285,1.320674 0.83934,2.0607 1.300778,2.756836 0.242647,0.36597 0.627922,0.804199 0.70752,0.804199 0.0318,0 0.215235,-0.107077 0.41016,-0.234375 1.034257,-0.692157 1.972387,-2.12077 2.69238,-4.089844 0.07954,-0.214809 0.15978,-0.424999 0.175777,-0.46875 0.03975,-0.09547 0.489158,-1.543796 0.57276,-1.850098 0.119325,-0.417684 0.23382,-0.859752 0.508298,-1.949706 0.56487,-2.219686 0.74841,-2.769089 0.999023,-2.956055 0.09945,-0.07154 0.106852,-0.07097 0.246097,-0.0073 0.178995,0.08354 0.684975,0.620894 0.9873,1.038575 0.86322,1.209291 1.729433,2.891328 2.4375,4.749023 1.451933,3.81086 1.91337,7.677791 1.300785,10.872071 -0.03967,0.210831 -0.06277,0.385254 -0.04687,0.385254 0.0597,0 0.632115,-0.635636 0.779295,-0.858399 0.65637,-1.026304 0.967193,-2.467275 0.97119,-4.5 0,-2.880022 -0.628267,-6.188639 -1.801755,-9.458497 -1.261005,-3.508537 -2.610007,-5.709327 -3.76758,-6.150879 -0.123322,-0.04772 -0.303142,-0.07471 -0.470212,-0.07471 z"
     style="fill:#5d8392;fill-opacity:1;fill-rule:evenodd;stroke-width:0.086553" />
  <path
     sodipodi:nodetypes="ccccccccccccccc"
     id="path32"
     d="m 4.6906873,12.039167 c -0.038475,0.725727 -0.5608275,1.283265 -1.1702325,2.360471 -0.9427725,1.690623 -1.301205,2.383699 -1.7109376,3.282715 -0.98255246,2.163992 -1.53526497,3.945897 -1.74608997,5.620605 -0.0836025,0.636469 -0.084,1.758594 -0.0045,2.311524 0.2466375,1.690623 1.04228997,2.978188 2.43456757,3.944824 0.2744325,0.186964 0.2987175,0.198838 0.2827125,0.111328 -0.35403,-1.599132 -0.4453125,-2.378025 -0.4453125,-3.754394 -0.00375,-1.424097 0.095903,-2.215489 0.4379925,-3.480469 0.3938175,-1.447968 0.7549575,-2.280002 2.620605,-6.007325 1.27929,-2.168987 1.30149,-2.27663 1.6057275,-3.117705 0.26877,-0.708336 0.5371125,-1.429421 0.661875,-2.218752 -0.102405,-0.157924 -2.2652175,-0.983122 -3.007845,-1.3989268 0.046425,0.7217798 0.055725,1.4289998 0.041475,2.3461048 z"
     style="fill:#5d8392;fill-opacity:1;fill-rule:evenodd;stroke-width:0.086553" />
  <path
     sodipodi:nodetypes="ccccccccccc"
     id="rect24"
     d="m 8.3490928,0.03379659 c -0.58144,-0.26285957 -1.12182,1.04828631 -1.72759,2.51942751 -0.31187,-0.1139402 -0.76398,-0.2687754 -1.10515,-0.3967226 -0.24996,1.0036524 -1.77273,4.3579011 -0.69648,5.9413475 0.53734,0.291856 3.2419,1.543335 3.8447,1.840933 1.7561902,-0.618644 2.8107502,-3.8210009 3.2178902,-5.3896251 -0.0492,-0.058283 -0.25626,-0.1223452 -1.11435,-0.4830956 0.65105,-2.1271717 0.98285,-2.8727169 0.3198,-3.11257673 -0.64331,-0.29366651 -1.2599902,2.25891753 -1.4239102,2.71896753 -0.26636,-0.1154709 -1.4327,-0.5391279 -1.71785,-0.6603483 0.54547,-1.4404262 1.01801,-2.77632206 0.40294,-2.97830721 z"
     style="fill:#5d8392;fill-opacity:1;fill-rule:evenodd;stroke-width:0.130269" />
  <metadata
     id="metadata12">
    <rdf:RDF>
      <cc:Work
         rdf:about="">
        <dc:format>image/svg+xml</dc:format>
        <dc:type
           rdf:resource="http://purl.org/dc/dcmitype/StillImage" />
        <dc:title />
      </cc:Work>
    </rdf:RDF>
  </metadata>
  <defs
     id="defs10" />
  <sodipodi:namedview
     fit-margin-bottom="0"
     fit-margin-right="0"
     fit-margin-left="0"
     fit-margin-top="0"
     inkscape:pagecheckerboard="true"
     inkscape:current-layer="svg6"
     inkscape:window-maximized="1"
     inkscape:window-y="-8"
     inkscape:window-x="1912"
     inkscape:cy="-28.403746"
     inkscape:cx="19.846223"
     inkscape:zoom="2.8284271"
     showgrid="false"
     id="namedview8"
     inkscape:window-height="1017"
     inkscape:window-width="1920"
     inkscape:pageshadow="2"
     inkscape:pageopacity="0"
     guidetolerance="10"
     gridtolerance="10"
     objecttolerance="10"
     borderopacity="1"
     bordercolor="#666666"
     pagecolor="#ffffff"
     inkscape:document-rotation="0" />
  <flowRoot
     transform="matrix(0.75000001,0,0,0.75000001,-578.21783,-525.58004)"
     style="font-style:normal;font-weight:normal;font-size:53.3333px;line-height:1.25;font-family:sans-serif;letter-spacing:0px;word-spacing:0px;fill:#000000;fill-opacity:1;stroke:none"
     id="flowRoot4536"
     xml:space="preserve"><flowRegion
       style="font-size:53.3333px"
       id="flowRegion4538"><rect
         style="font-size:53.33333206px"
         y="678.66669"
         x="820.3125"
         height="110.9375"
         width="479.6875"
         id="rect4540" /></flowRegion><flowPara
       id="flowPara4542" /></flowRoot>
  <flowRoot
     transform="matrix(0.75000001,0,0,0.75000001,-161.0194,6.2662857)"
     style="font-style:normal;font-weight:normal;font-size:29.3333px;line-height:1.25;font-family:sans-serif;letter-spacing:0px;word-spacing:0px;fill:#000000;fill-opacity:1;stroke:none"
     id="flowRoot6053"
     xml:space="preserve"><flowRegion
       id="flowRegion6055"><rect
         y="-19.39526"
         x="-5.6623783"
         height="80.101944"
         width="198.32135"
         id="rect6057" /></flowRegion><flowPara
       id="flowPara6059" /></flowRoot>
</svg>
